<svg xmlns="http://www.w3.org/2000/svg" viewBox="0 0 1306.09 132.03"><defs><style>.cls-1{fill:#2845ae;}.cls-2{fill:#5493f7;}.cls-3{fill:#224199;}</style></defs><g id="Layer_2" data-name="Layer 2"><g id="Layer_2-2" data-name="Layer 2"><path class="cls-1" d="M0,82.65v9.08c0,5,8.52,9.09,19,9.09s19-4.07,19-9.09V82.65"/><ellipse class="cls-2" cx="19.03" cy="82.65" rx="19.03" ry="9.08"/><ellipse class="cls-1" cx="19.03" cy="82.65" rx="14.09" ry="6.72"/><polygon class="cls-1" points="24.85 86.73 12.21 85.61 24.73 70.66 24.85 86.73"/><polygon class="cls-2" points="73.51 113.87 23.09 96.56 22.89 42.55 72.48 58.48 73.51 113.87"/><path class="cls-1" d="M63.51,110.43,31.85,99.56V64.2a2,2,0,0,1,2.6-2l26.89,8a3,3,0,0,1,2.17,2.89Z"/><polygon class="cls-2" points="72.48 58.48 22.89 42.55 42 21.17 90.07 34.96 72.48 58.48"/><polygon class="cls-2" points="90.07 34.96 42 21.17 96.87 0 149.36 12.52 90.07 34.96"/><polygon class="cls-2" points="102.35 26.32 55.72 12.52 85.22 1.92 133.36 14.5 102.35 26.32"/><polygon class="cls-1" points="73.51 113.87 72.48 58.48 90.07 34.96 149.36 12.52 164.61 23.8 164.96 68.76 73.51 113.87"/><path class="cls-1" d="M145.94,85.93V95c0,5,8.52,9.08,19,9.08S184,100,184,95V85.93"/><ellipse class="cls-2" cx="164.97" cy="85.93" rx="19.03" ry="9.08"/><ellipse class="cls-1" cx="164.97" cy="85.93" rx="14.09" ry="6.72"/><path class="cls-2" d="M143.86,69.15l20.28,18.3a.89.89,0,0,0,1,.12l8.65-4.71a.63.63,0,0,0,.19-1L160.65,65.68a5.4,5.4,0,0,0-6.42-1.47Z"/><path class="cls-1" d="M152.4,89l12.21-1.09-14.7-17.55a5,5,0,0,0-3.76-1.71h0a5,5,0,0,0-3.75,8.24Z"/><path class="cls-1" d="M90,113.87V123c0,5,8.52,9.08,19,9.08s19-4.07,19-9.08v-9.08"/><ellipse class="cls-2" cx="109.02" cy="113.87" rx="19.03" ry="9.08"/><ellipse class="cls-1" cx="109.02" cy="113.87" rx="14.09" ry="6.72"/><path class="cls-2" d="M87.91,97.09l20.27,18.29a.91.91,0,0,0,1,.12l8.63-4.7a.63.63,0,0,0,.19-1L104.5,93.46A5.42,5.42,0,0,0,98.08,92Z"/><path class="cls-1" d="M96.45,116.89l12.21-1.08L94,98.26a5,5,0,0,0-3.75-1.72h0a5,5,0,0,0-3.76,8.25Z"/><polygon class="cls-2" points="148.51 29.67 116.03 42.55 102.35 26.32 133.36 14.5 148.51 29.67"/><polygon class="cls-2" points="148.51 59.87 116.64 73.52 116.03 42.55 148.51 29.67 148.51 59.87"/><polygon class="cls-3" points="102.35 68.92 102.21 30.62 102.35 26.32 116.03 42.55 116.64 73.52 102.35 68.92"/><polygon class="cls-3" points="102.21 30.62 55.72 15.87 55.72 12.52 102.35 26.32 102.21 30.62"/><path class="cls-1" d="M248.2,35.76h-26V18.44H293V35.76H267v68.07H248.2Z"/><path class="cls-1" d="M287,71.5v-.24c0-18.66,13.29-34,32.33-34,21.83,0,31.84,17,31.84,35.5,0,1.47-.13,3.18-.25,4.88h-45.5c1.83,8.42,7.68,12.81,16,12.81,6.22,0,10.74-2,15.86-6.71l10.61,9.4c-6.1,7.56-14.88,12.2-26.71,12.2C301.51,105.3,287,91.51,287,71.5ZM333.11,66c-1.1-8.29-6-13.9-13.78-13.9S306.64,57.6,305.17,66Z"/><path class="cls-1" d="M362.51,38.44h18.55V51.62c3.78-9,9.88-14.88,20.86-14.4v19.4h-1c-12.32,0-19.88,7.44-19.88,23.06v24.15H362.51Z"/><path class="cls-1" d="M411.07,38.44h18.54V51.62c3.78-9,9.88-14.88,20.86-14.4v19.4h-1c-12.32,0-19.89,7.44-19.89,23.06v24.15H411.07Z"/><path class="cls-1" d="M452.67,85.05V84.8c0-14.27,10.86-20.86,26.35-20.86a46.67,46.67,0,0,1,16,2.68V65.53c0-7.69-4.76-12-14-12-7.08,0-12.08,1.34-18.06,3.54L458.29,43a57.67,57.67,0,0,1,25.37-5.25c10.13,0,17.44,2.69,22.08,7.32,4.88,4.88,7.08,12.08,7.08,20.86v37.94H494.88V96.76c-4.51,5-10.73,8.29-19.76,8.29C462.8,105.05,452.67,98,452.67,85.05Zm42.58-4.27v-3.3A28.81,28.81,0,0,0,483.42,75c-7.93,0-12.81,3.17-12.81,9v.24c0,5,4.14,7.93,10.12,7.93C489.39,92.24,495.25,87.49,495.25,80.78Z"/><path class="cls-1" d="M555.94,30.19h51.8v5H561.35v28.6h41.71v5H561.35V98h46.91v5H555.94Z"/><path class="cls-1" d="M619.28,50h5.1v9.88c3.53-6.24,9.46-11.13,19.13-11.13,13.42,0,21.22,9.15,21.22,21.84V103h-5.1V71.48c0-10.92-6.13-18.1-16.85-18.1-10.4,0-18.4,7.9-18.4,18.93V103h-5.1Z"/><path class="cls-1" d="M676.79,111.73l3-4.16a34.67,34.67,0,0,0,21.42,7.48c12.17,0,20.8-7,20.8-20.59v-7.7C717.46,93.32,710.38,99,699.88,99c-12.79,0-25.48-9.78-25.48-25v-.21c0-15.29,12.69-25.17,25.48-25.17,10.61,0,17.78,5.62,22.15,11.86V50h5.1V94.77c0,7.7-2.5,13.73-6.76,18-4.58,4.57-11.44,7.07-19.24,7.07A40.12,40.12,0,0,1,676.79,111.73ZM722.35,74v-.21c0-12.27-10.93-20.17-22-20.17s-20.49,7.69-20.49,20.07v.21c0,12,9.57,20.28,20.49,20.28S722.35,86,722.35,74Z"/><path class="cls-1" d="M741.37,29.15h6.35v7h-6.35ZM742,50h5.09v53H742Z"/><path class="cls-1" d="M762,50h5.1v9.88c3.54-6.24,9.46-11.13,19.14-11.13,13.41,0,21.21,9.15,21.21,21.84V103h-5.09V71.48c0-10.92-6.14-18.1-16.85-18.1-10.4,0-18.41,7.9-18.41,18.93V103H762Z"/><path class="cls-1" d="M816.88,76.57v-.21C816.88,61,827.69,48.7,842,48.7c14.88,0,24.34,12.06,24.34,27.77a13.81,13.81,0,0,1-.1,2.08h-44c.94,13.21,10.4,20.9,20.8,20.9,8.22,0,13.84-3.64,18.2-8.32l3.54,3.12c-5.41,5.83-11.75,10-21.94,10C828.94,104.24,816.88,93.11,816.88,76.57Zm44-2.6c-.73-10.71-6.86-20.59-19-20.59-10.51,0-18.62,8.84-19.56,20.59Z"/><path class="cls-1" d="M872.41,76.57v-.21c0-15.39,10.82-27.66,25.17-27.66,14.87,0,24.34,12.06,24.34,27.77a12.57,12.57,0,0,1-.11,2.08h-44c.94,13.21,10.4,20.9,20.8,20.9,8.22,0,13.83-3.64,18.2-8.32l3.54,3.12c-5.41,5.83-11.76,10-22,10C884.48,104.24,872.41,93.11,872.41,76.57Zm44-2.6c-.73-10.71-6.87-20.59-19-20.59-10.5,0-18.61,8.84-19.55,20.59Z"/><path class="cls-1" d="M931.59,50h5.09V65c4.16-9.47,13-16.33,23.51-15.91v5.61h-.52c-12.27,0-23,9.26-23,26.52V103h-5.09Z"/><path class="cls-1" d="M968.09,29.15h6.35v7h-6.35Zm.63,20.8h5.09v53h-5.09Z"/><path class="cls-1" d="M988.68,50h5.1v9.88c3.53-6.24,9.46-11.13,19.14-11.13,13.41,0,21.21,9.15,21.21,21.84V103H1029V71.48c0-10.92-6.14-18.1-16.85-18.1-10.4,0-18.41,7.9-18.41,18.93V103h-5.1Z"/><path class="cls-1" d="M1046.19,111.73l3-4.16a34.67,34.67,0,0,0,21.42,7.48c12.17,0,20.81-7,20.81-20.59v-7.7c-4.58,6.56-11.65,12.28-22.16,12.28-12.79,0-25.48-9.78-25.48-25v-.21c0-15.29,12.69-25.17,25.48-25.17,10.61,0,17.79,5.62,22.16,11.86V50h5.09V94.77c0,7.7-2.5,13.73-6.76,18-4.58,4.57-11.44,7.07-19.24,7.07A40.12,40.12,0,0,1,1046.19,111.73ZM1091.75,74v-.21c0-12.27-10.92-20.17-22-20.17s-20.49,7.69-20.49,20.07v.21c0,12,9.57,20.28,20.49,20.28S1091.75,86,1091.75,74Z"/><path class="cls-1" d="M1137.81,30.19h30.06c8.22,0,14.87,2.39,18.93,6.44a15.69,15.69,0,0,1,4.68,11.45v.2c0,9.88-6.45,14.88-12.38,17.27,8.74,2.29,16.44,7.28,16.44,17.37v.21c0,12.16-10.4,19.86-26.11,19.86h-31.62ZM1186,48.6c0-8-6.55-13.42-18.2-13.42h-24.55v28.6h24c10.92,0,18.72-5.3,18.72-15Zm-18.1,20.17h-24.65V98h26.42c12.48,0,20.38-5.72,20.38-14.87v-.21C1190,74,1182.22,68.77,1167.87,68.77Z"/><path class="cls-1" d="M1202.19,87.6v-.21c0-11,9.46-17.27,23.19-17.27A63.9,63.9,0,0,1,1243,72.41V70.12c0-10.71-6.55-16.22-17.47-16.22a35.58,35.58,0,0,0-16.64,4.26L1207,53.69c5.83-2.7,11.55-4.57,18.83-4.57s12.89,2,16.74,5.82c3.54,3.54,5.41,8.42,5.41,15V103h-5V94.15a24.11,24.11,0,0,1-20.28,10.09C1212.8,104.24,1202.19,98.62,1202.19,87.6Zm40.87-4.47v-6a70.49,70.49,0,0,0-18-2.39c-11.23,0-17.47,5-17.47,12.38v.21c0,7.69,7.28,12.16,15.39,12.16C1233.81,99.45,1243.06,92.8,1243.06,83.13Z"/><path class="cls-1" d="M1300.47,50h5.62l-23,54.91c-4.68,11.13-10.09,15.08-17.68,15.08a23.85,23.85,0,0,1-10.5-2.29l1.77-4.47a18.46,18.46,0,0,0,9,2c5.52,0,9.16-3.23,13.11-12.48L1253.36,50h5.93l22,47.42Z"/></g></g></svg>