<svg xmlns="http://www.w3.org/2000/svg" width="76" height="16">
  <path fill="#2043B5" d="M22.02 3.48h2.35l3.73 8.71h-2.6l-.63-1.55h-3.4l-.62 1.55H18.3l3.72-8.7zm2.13 5.29-.97-2.45-1 2.45h1.97zm4.8-5.23h2.28l3.6 4.57V3.54h2.41v8.65h-2.11l-3.77-4.74v4.74h-2.4V3.54zm9.57 4.35v-.02c0-2.52 1.95-4.5 4.61-4.5 1.8 0 2.95.74 3.73 1.8l-1.84 1.39c-.5-.6-1.07-1.03-1.91-1.03-1.23 0-2.1 1.04-2.1 2.3v.03c0 1.3.87 2.3 2.1 2.3.91 0 1.45-.41 1.98-1.04l1.83 1.28a4.43 4.43 0 0 1-3.88 1.96 4.5 4.5 0 0 1-3.22-1.3 4.36 4.36 0 0 1-1.3-3.17zm9.45-4.35h2.44v3.24h3.12V3.54h2.43v8.65h-2.44V8.9H50.4v3.3h-2.43V3.53zm9.26 4.35v-.02c0-2.49 2.03-4.5 4.73-4.5 2.71 0 4.71 1.99 4.71 4.47v.03c0 2.48-2.03 4.5-4.74 4.5s-4.71-1.99-4.71-4.48zm6.95 0v-.02c0-1.26-.9-2.34-2.24-2.34-1.35 0-2.23 1.06-2.23 2.31v.03c0 1.25.91 2.33 2.25 2.33 1.34 0 2.22-1.06 2.22-2.3zm3.75-4.35h4.15c1.34 0 2.27.34 2.86.93.52.51.77 1.16.77 2.01v.03c0 1.33-.71 2.21-1.8 2.67L76 12.19h-2.8l-1.76-2.62h-1.08v2.62h-2.43V3.54zm4.05 4.15c.81 0 1.3-.4 1.3-1.02v-.03c0-.7-.52-1.04-1.32-1.04h-1.6v2.1h1.62z"/>
  <rect width="16.24" height="16" fill="#2043B5" rx="8"/>
  <path fill="#FFF" d="M12.74 9.67c.43.74.17 1.67-.58 2.1a1.57 1.57 0 0 1-2.13-.57L6.78 5.62a1.52 1.52 0 0 1 .57-2.1 1.57 1.57 0 0 1 2.13.56l3.27 5.6z" opacity=".4"/>
  <path fill="#FFF" d="M6.2 11.2a1.56 1.56 0 0 1-1.35.77 1.56 1.56 0 0 1-1.35-.77 1.52 1.52 0 0 1 0-1.53l3.27-5.59a1.57 1.57 0 0 1 2.13-.56 1.52 1.52 0 0 1 .57 2.1L6.2 11.2z" opacity=".65"/>
  <path fill="#FFF" d="M9.46 4.08A.76.76 0 0 0 9.4 4l-.03-.04-.06-.08a.47.47 0 0 0-.04-.04l-.06-.06-.05-.05-.05-.05-.07-.05L9 3.59l-.08-.05H8.9l-.03-.03-.08-.04-.07-.03-.07-.02-.08-.03-.06-.01-.09-.02a.38.38 0 0 0-.06-.01.75.75 0 0 0-.15-.01h-.16a.75.75 0 0 0-.15 0l-.06.02-.09.02-.06.01a.75.75 0 0 0-.08.01l-.07.03-.07.03-.08.04-.03.02h-.02l-.08.06-.05.03-.07.06-.05.04-.06.05-.05.06-.05.05a.87.87 0 0 0-.05.07l-.04.05-.05.08a1.51 1.51 0 0 0-.01 1.55l1.35 2.3 1.35-2.3c.27-.48.27-1.06-.01-1.54z"/>
</svg>
