<svg xmlns="http://www.w3.org/2000/svg" width="202" height="182">
  <path fill="#2845AE" d="M172.7 102.8c.3-11.3-4.5-21.5-13.7-26.2l-6.7-3.4-43.6-22.1-17.1-8.7c-5.4-2.7-11.6-3.1-17.5-1.5l-25-12.7c-11.1-5.6-25.7 1-32.6 14.6-6.9 13.7-3.6 29.3 7.5 34.9.1.1.2.1.4.2L49 90.5c2.2 5.7 6.2 10.3 11.6 13 .1.1.2.1.3.1l67.1 34c9.2 4.7 20.3 2.6 29.2-4.4l9.1 4.6 15.5-30.6-9.1-4.4Z"/>
  <path fill="#5493F7" d="m28.6 130.3 42.9 22.9-27.3 27.9c-.37.462-.994.582-1.481.362l-.119-.062-41-20.9c-.7-.3-.9-1.2-.6-1.9.08-.16.16-.256.24-.34L28.6 130.3Zm34.7-35.4c.37-.462.994-.582 1.481-.362l.119.062 41 20.9c.7.3 1 1.2.6 1.9-.06.12-.12.204-.18.274l-.12.126-31.7 32.5-43-22.9 31.8-32.5Zm100.982 22.769c4.297-8.473 12.173-13.113 17.59-10.366 5.42 2.748 6.329 11.844 2.032 20.316-4.296 8.473-12.172 13.114-17.59 10.366-5.419-2.748-6.328-11.844-2.032-20.316ZM66.7 39.4c2.5 0 5 .4 7.3 1.4-1.98.54-3.879 1.323-5.77 2.276l-.63.324h-.9c-7.9.1-16.1 5.9-20.5 14.4-4.7 9.3-4.1 19.6 1 25.7.4 2.4 1 4.7 1.8 6.8-10.1-6.1-12.9-21.1-6.3-34.3 5.2-10.3 14.8-16.6 24-16.6Zm59.4-6.2L169 56.1l-16.7 17.1-43.6-22.1 17.4-17.9ZM157.7.9c.37-.462.994-.582 1.481-.362L159.3.6l41 20.9c.7.3 1 1.2.7 1.9-.08.16-.16.256-.24.34L172 53.1l-43-22.9L157.7.9Z"/>
</svg>
