<svg viewBox="0 0 128 17" width="128" height="17">
  <path d="M32.9 3.56a4.7 4.7 0 0 1 1.52-.06c.2.01.4.04.58.09v3.34a4.8 4.8 0 0 0-1.54-.25c-.68 0-1.23.1-1.62.3-.4.19-.71.46-.93.8a3.12 3.12 0 0 0-.42 1.26 11.62 11.62 0 0 0-.1 1.61v4.94H26.8V3.76h3.6v1.33a4.58 4.58 0 0 1 2.5-1.53zm9.74 0a4.68 4.68 0 0 1 1.52-.06c.2.01.4.04.57.09v3.34a4.8 4.8 0 0 0-1.54-.25c-.68 0-1.22.1-1.62.3-.4.19-.71.46-.92.8a3.12 3.12 0 0 0-.42 1.26 11.62 11.62 0 0 0-.1 1.61v4.94h-3.6V3.76h3.6v1.33a4.59 4.59 0 0 1 2.5-1.53zM.68.46h13.8v3.23H9.5v11.84H5.66V3.7H.68V.46zM17.05 4.4a7.61 7.61 0 0 1 2.58-.42c.85 0 1.62.14 2.3.42a4.86 4.86 0 0 1 1.76 1.23c.48.53.85 1.17 1.11 1.92.26.74.4 1.57.4 2.49v1.11h-8.5c.15.68.47 1.23.95 1.63.5.4 1.1.6 1.8.6.6 0 1.12-.12 1.53-.39a4.25 4.25 0 0 0 1.1-1l2.55 1.83a5.92 5.92 0 0 1-2.22 1.69c-.87.38-1.77.58-2.7.59h-.17a7.8 7.8 0 0 1-2.49-.43 6.19 6.19 0 0 1-2.1-1.22 5.74 5.74 0 0 1-1.4-1.92c-.34-.74-.51-1.57-.51-2.5a5.84 5.84 0 0 1 1.91-4.4 6.23 6.23 0 0 1 2.1-1.23zm-.14 3.5a2.19 2.19 0 0 0-.2.82h4.83a2.06 2.06 0 0 0-.61-1.54 2.2 2.2 0 0 0-1.63-.64 2.71 2.71 0 0 0-1.87.67c-.22.2-.4.43-.52.7zM46.3 4.93a11.2 11.2 0 0 1 4.75-.95c1.9 0 3.26.48 4.13 1.32.92.88 1.33 2.17 1.33 3.75v6.83h-3.36V14.6a4.8 4.8 0 0 1-3.7 1.5c-2.31 0-4.21-1.27-4.21-3.6v-.04c0-2.57 2.03-3.76 4.94-3.76 1.23 0 2.12.2 3 .49v-.2c0-1.38-.9-2.15-2.63-2.15-1.33 0-2.27.24-3.38.63l-.87-2.54zm2.29 7.44c0 .9.78 1.43 1.9 1.43 1.63 0 2.72-.86 2.72-2.06v-.2a.59.59 0 0 0-.4-.55 5.8 5.8 0 0 0-1.82-.28c-1.48 0-2.4.56-2.4 1.62v.04zm14.35 1.05l1.02-1.2a6.9 6.9 0 0 0 4.98 2.06c1.95 0 3.24-1.05 3.24-2.48v-.05c0-1.35-.73-2.12-3.78-2.77-3.34-.73-4.87-1.81-4.87-4.2v-.05c0-2.3 2-3.98 4.77-3.98 2.12 0 3.63.6 5.1 1.8l-.95 1.26a6.36 6.36 0 0 0-4.2-1.58c-1.88 0-3.08 1.04-3.08 2.35v.04c0 1.38.74 2.15 3.94 2.84 3.24.7 4.73 1.9 4.73 4.13v.04c0 2.5-2.08 4.12-4.96 4.12-2.3 0-4.2-.77-5.94-2.33zm13.45-.73V6.2h-1.5V4.77h1.5V1.52H78v3.25h3.4v1.42H78v6.3c0 1.3.73 1.79 1.8 1.79.54 0 1-.1 1.56-.38v1.38a4 4 0 0 1-1.93.46c-1.72 0-3.03-.86-3.03-3.05zm13.95-1.1v-1.05a11.15 11.15 0 0 0-3.16-.45c-2.01 0-3.13.87-3.13 2.23v.04c0 1.35 1.24 2.14 2.7 2.14 1.97 0 3.59-1.2 3.59-2.91zm-7.9.83v-.04c0-2.27 1.86-3.48 4.58-3.48 1.37 0 2.34.19 3.3.46v-.38c0-1.94-1.19-2.94-3.2-2.94-1.27 0-2.26.33-3.26.8l-.48-1.32a8.83 8.83 0 0 1 3.9-.9c1.52 0 2.68.4 3.47 1.2.73.72 1.1 1.76 1.1 3.14v6.58h-1.53v-1.62a4.7 4.7 0 0 1-3.88 1.85c-2 0-4-1.14-4-3.35zm12.3.27V6.2h-1.5V4.77h1.5V1.52h1.6v3.25h3.4v1.42h-3.4v6.3c0 1.3.72 1.79 1.8 1.79.54 0 1-.1 1.56-.38v1.38a4 4 0 0 1-1.93.46c-1.73 0-3.03-.86-3.03-3.05zm6.99 2.86V4.77h1.6v10.78h-1.6zm-.1-13.13V.65h1.82v1.77h-1.82zm13.32 7.8v-.05c0-2.31-1.72-4.21-3.99-4.21-2.32 0-3.92 1.9-3.92 4.17v.04c0 2.31 1.7 4.19 3.96 4.19 2.33 0 3.95-1.88 3.95-4.15zm-9.55 0v-.05a5.57 5.57 0 0 1 5.6-5.63 5.53 5.53 0 0 1 5.59 5.59v.04a5.58 5.58 0 0 1-5.63 5.63 5.5 5.5 0 0 1-5.56-5.59zm13.1-5.45h1.6v1.88a4.06 4.06 0 0 1 3.67-2.1c2.6 0 4.1 1.74 4.1 4.3v6.7h-1.6v-6.3c0-2-1.07-3.25-2.96-3.25-1.85 0-3.22 1.36-3.22 3.38v6.17h-1.6V4.77z"/>
</svg>
