<svg xmlns="http://www.w3.org/2000/svg" xml:space="preserve" viewBox="0 0 80 80">
  <linearGradient id="a" x1="14.483" x2="65.683" y1="3.638" y2="76.598" gradientUnits="userSpaceOnUse">
    <stop offset="0" stop-color="#fcecb2"/>
    <stop offset=".26" stop-color="#ff8b89"/>
    <stop offset=".52" stop-color="#fc8adc"/>
    <stop offset=".76" stop-color="#7954ff"/>
    <stop offset="1" stop-color="#70bcff"/>
  </linearGradient>
  <path fill="url(#a)" d="M40 0C17.9 0 0 17.9 0 40s17.9 40 40 40 40-17.9 40-40S62.1 0 40 0zM15.6 60.7C7.5 35.2 4 50.6 4 40c0-11.9 5.8-23 15.6-29.7.7-.5 1.5.4 1.2 1.1-1.2 2.8-1.8 5.7-1.8 8.6 0 7.7 4.2 14.8 11 18.5 5.2 2.8 11 6.2 10.7 12.1-.3 6.2-2.8 12.5-8.6 15.9-2 1.1-4.2 1.9-6.4 2.3-4.8.7-8.6-3.4-10.1-8.1zm54.5-9.9C52 70.6 67.2 65.9 58 71.2c-10.3 5.9-22.8 6.4-33.5 1.3-.2-.1-.4-.4-.4-.7 0-.5.3-.9.8-.9 2.9-.3 5.7-1.2 8.3-2.7 6.7-3.9 10.7-11.1 10.5-18.8-.2-5.9-.1-12.7 5.2-15.3 5.5-2.8 12.3-3.8 18-.5 2 1.2 3.7 2.7 5.2 4.4 3.1 3.8 1.3 9.1-2 12.8zm4.2-13.1c-6.5-8.9-18.7-11.3-28-5.5-5 3.1-10.9 6.4-15.9 3.2C25.2 32 21 26.6 21 20c0-2.3.5-4.6 1.3-6.7 1.7-4.7 7.2-5.8 12-4.8 26.1 5.7 14.5-5 23.7.3 10.3 5.9 17 16.5 17.9 28.4 0 .3-.1.5-.4.7-.4.2-.9.2-1.2-.2z"/>
</svg>