<svg xmlns="http://www.w3.org/2000/svg" viewBox="0 0 60 60">
  <path fill="#45277A" d="M30 0a30 30 0 0 1 30 30c0 16.569-13.431 30-30 30S0 46.569 0 30 13.431 0 30 0Zm14.767 34.357a3.9 3.9 0 0 0-4.437 2.853 3.85 3.85 0 0 0-.12 1c-.002.429.07.855.21 1.26a3.9 3.9 0 0 0 3.473 2.624l.207.006a3.9 3.9 0 0 0 .667-7.743ZM19.66 37.2a3.89 3.89 0 1 0-.138 2.417l.068-.187v.039l.074-.247a3.81 3.81 0 0 0 .12-.763l.006-.259a4.24 4.24 0 0 0-.13-1Zm-3.76-.85a1.9 1.9 0 1 1-.02 3.8 1.9 1.9 0 0 1 .02-3.8Zm28.2-.04.148.006a1.9 1.9 0 1 1-.296 0l.148-.006Zm-4.66.9H20.55c.083.327.127.663.13 1 0 .332-.043.662-.128.982l-.072.238 19.05.04a3.79 3.79 0 0 1-.21-1.26 3.85 3.85 0 0 1 .065-.753l.055-.247Zm-12.5-19.78L17.49 33.8a3.89 3.89 0 0 1 1.718 1.014l.172.186 9.52-16.51a3.65 3.65 0 0 1-1.16-.44 3.5 3.5 0 0 1-.617-.444l-.183-.176Zm6.29-.02a3.66 3.66 0 0 1-.77.59 4 4 0 0 1-.956.408l-.254.062 9.49 16.49a3.86 3.86 0 0 1 1-.78 3.75 3.75 0 0 1 .688-.316l.242-.074-9.44-16.38ZM30 9.86a3.9 3.9 0 1 0 0 7.8 3.9 3.9 0 0 0 0-7.8Zm-.715 2.134A1.9 1.9 0 1 1 30 15.65a1.89 1.89 0 0 1-1.89-1.9 1.9 1.9 0 0 1 1.175-1.756Z"/>
</svg>
