<svg viewBox="0 0 128 128">
  <path fill="#f9d85e" d="M69.31 78.76C43.21 67.1 26.93 43.43 25.98 19.61a1.2 1.2 0 00-1.99-.84A59.75 59.75 0 003.61 64.29c.27 32.3 26.5 58.81 58.82 59.42a60.02 60.02 0 0057.23-38.56 1.2 1.2 0 00-1.4-1.6c-15.2 3.82-32.56 2.54-48.95-4.79z"/>
  <path fill="#ef7730" d="M122.51 52.96a61.02 61.02 0 00-1.27-5.46l-.06-.23a66 66 0 00-.74-2.39l-.06-.18a57.55 57.55 0 00-1.86-4.84l-.05-.11c-.33-.76-.68-1.52-1.05-2.26l-.03-.06c-.38-.77-.77-1.53-1.18-2.28l-.03-.06a63.64 63.64 0 00-1.35-2.33c-.42-.69-.85-1.36-1.29-2.03l-.15-.23a59.46 59.46 0 00-2.97-4.06l-.19-.24a46.79 46.79 0 00-1.71-2.02v-.01a61.43 61.43 0 00-1.72-1.87l-.07-.07a50.1 50.1 0 00-1.63-1.63l-.24-.23a65.13 65.13 0 00-1.73-1.59l-.21-.18c-.6-.52-1.21-1.03-1.82-1.53l-.17-.14a61.97 61.97 0 00-2-1.53l-.04-.03c-.68-.5-1.38-.99-2.08-1.46l-.03-.02a58.35 58.35 0 00-4.37-2.65l-.17-.09c-.71-.39-1.44-.76-2.17-1.13l-.29-.14a62.76 62.76 0 00-4.67-2.04l-.27-.11c-.82-.31-1.66-.61-2.5-.89l-.05-.02c-.78-.26-1.57-.5-2.37-.73l-.22-.06c-.85-.24-1.71-.46-2.57-.66l-.05-.01c-.82-.19-1.65-.36-2.48-.52l-.16-.03c-.87-.16-1.75-.3-2.63-.43h-.02a62.67 62.67 0 00-4.15-.43c.23.05.46.07.69.1l1.6.16h.01l1.51.19h.02a52.36 52.36 0 012.77.48l.06.01 1.23.28.08.02c.39.1.77.2 1.13.31l.1.03 1.05.34.12.04.96.36.15.06c.3.12.59.25.88.39l.17.09c.27.13.54.26.79.4l.2.11c.24.14.48.27.71.42l.23.15c.21.14.43.28.63.43l.27.21c.18.14.37.27.54.42l.32.28.45.39.41.4.32.32c.24.25.47.51.69.78.33.4 2.04 2.57 2.96 6.38 1.11 4.59.92 9.37 1.97 13.97l.56 2.27.16.59.48 1.69.15.51c5.4 17.4 16.21 25.67 30.71 36.74.5-3.1.75-6.28.75-9.52.01-3.66-.32-7.28-.96-10.79z"/>
  <path fill="#f9d85e" d="M122.91 55.48c-2.12-4.9-2.12-4.9-58.98-25.44C35.32 19.7 30.01 9.72 50.72 5.2A60.08 60.08 0 0163.5 3.84a59.98 59.98 0 0159.41 51.64"/>
</svg>
