<svg width="50" height="50" xmlns="http://www.w3.org/2000/svg"><g fill="none" fill-rule="evenodd"><rect fill="#EBEFF8" width="50" height="50" rx="5"/><path d="M29.616 28.947v6.316h-2.068v-6.316h2.068Zm-12.41-4.21v2.105h-2.069v-2.105h2.068Zm8.273 0v2.105h-2.068v-2.105h2.068Zm10.343 0v2.105h-2.069v-2.105h2.069ZM23.41 22.632v2.105h-2.069v-2.105h2.069Zm10.342 0v2.105h-2.068v-2.105h2.068Zm2.069-8.422v4.211H17.205v-4.21h18.617Z" fill="#2043B5" opacity=".01"/><path d="M15.137 26.842v2.105h2.068V50h-2.068V31.053h-2.069v-4.21h2.069Zm18.616 16.842v2.105H25.48V50h-2.068v-6.316h10.342Zm2.069-2.105v2.105h-2.069V41.58h2.069Zm2.068-27.368v27.368h-2.068V24.737h-2.069v2.105h-2.068v-2.105h2.068v-2.105h2.069V14.21h2.068Zm-4.137 23.157v2.106H23.411v-2.106h10.342ZM23.411 24.737v2.105h-2.069v-2.105h2.069Zm-10.343 0v2.105H11v-2.105h2.068Zm12.411-2.105v2.105h-2.068v-2.105h2.068Zm-8.274-8.421v10.526h-4.137v-2.105h2.069V14.21h2.068Zm2.069-2.106v2.106h-2.069v-2.106h2.069Zm16.548 0v2.106h-2.069v-2.106h2.069ZM33.753 10v2.105h-14.48V10h14.48Z" fill="#2043B5" opacity=".1"/><path d="M35.822 18.421v4.21h-4.137v4.211h4.137V41.58h-2.069v2.105H23.411V50h-6.206V28.947h-2.068v-2.105h2.068v-8.421h18.617Zm-2.069 18.947H23.411v2.106h10.342v-2.106Zm-4.137-8.42h-2.068v6.315h2.068v-6.316Zm-14.48-4.211v2.105h-2.068v-2.105h2.069Zm10.343-2.105h-4.137v4.21h4.137v-4.21Zm8.274-10.527v2.105h-14.48v-2.105h14.48Z" fill="#FFF"/></g></svg>