<svg viewBox="0 0 100 100" width="100" height="100">
  <g fill="none" fill-rule="evenodd">
    <circle cx="50" cy="50" r="50" fill="#F4F5FB"/>
    <path fill="#2043B5" fill-rule="nonzero" d="M67 39.31c-1.25.57-2.6.95-4 1.12a7.07 7.07 0 003.06-3.91c-1.35.8-2.84 1.4-4.43 1.71a6.92 6.92 0 00-5.1-2.23 7.05 7.05 0 00-6.79 8.68c-5.8-.3-10.93-3.11-14.37-7.39a7.14 7.14 0 002.15 9.44 6.87 6.87 0 01-3.15-.88 7.05 7.05 0 005.6 7.02 6.9 6.9 0 01-3.16.12 7 7 0 006.52 4.9A13.9 13.9 0 0133 60.83C36.09 62.83 39.76 64 43.7 64c12.94 0 20.26-11.08 19.82-21.03A14.3 14.3 0 0067 39.31z"/>
  </g>
</svg>
