<svg viewBox="0 0 43 50">
  <path d="M20.57 12.26c0 .16-.16.16-.16.16h-.17c-.16 0-.16-.16-.33-.33 0 0-.16-.16-.16-.33s0-.16.16-.16l.33.16c.17.17.33.33.33.5M17.6 10.6c0-.83-.33-1.32-.82-1.32 0 0 0 .16-.17.16v.33h.5c0 .33.16.5.16.83h.33m5.78-.83c.33 0 .5.33.66.83h.33c-.17-.17-.17-.33-.17-.5 0-.16 0-.33-.16-.5-.17-.16-.33-.32-.5-.32 0 0-.16.16-.33.16 0 .17.17.17.17.33m-4.95 2.64c-.17 0-.17 0-.17-.16s0-.33.17-.5c.33 0 .5-.16.5-.16.16 0 .16.16.16.16 0 .17-.17.33-.5.66h-.16m-1.82-.16c-.66-.33-.82-.83-.82-1.65 0-.5 0-.83.33-1.16a.9.9 0 01.82-.5c.33 0 .5.17.83.5.16.5.33 1 .33 1.49v.33h.16v-.17c.17 0 .17-.33.17-.99 0-.5 0-.99-.33-1.48-.33-.5-.66-.83-1.32-.83-.5 0-1 .33-1.16.83-.33.66-.4 1.15-.4 1.98 0 .66.24 1.32.9 1.98.16-.17.33-.17.5-.33m20.62 23.27c.16 0 .16-.07.16-.22 0-.36-.16-.8-.66-1.27-.5-.5-1.32-.81-2.3-.94l-.34-.02c-.16-.03-.16-.03-.33-.03-.16-.02-.5-.05-.66-.08.5-1.54.66-2.9.66-4.08 0-1.65-.33-2.8-.99-3.8-.66-.98-1.32-1.48-2.14-1.64-.17.16-.17.16-.17.33.83.33 1.65.99 2.15 1.98.5 1.15.66 2.14.66 3.3 0 .92-.17 2.29-.83 4.04-.66.26-1.32.87-1.81 1.83 0 .15 0 .23.16.23 0 0 .17-.15.33-.43.33-.28.5-.56.83-.84.5-.28.82-.43 1.32-.43.82 0 1.65.12 2.14.35.66.21 1 .44 1.16.7.16.26.33.49.5.7 0 .22.16.31.16.31M22.06 11.6c-.17-.17-.17-.5-.17-.83 0-.66 0-.99.33-1.48.33-.33.66-.5 1-.5.49 0 .82.33 1.15.66.16.5.33.83.33 1.32 0 .83-.33 1.32-1 1.49 0 0 .17.16.34.16.33 0 .5.17.82.33.17-.99.33-1.65.33-2.47 0-1-.16-1.65-.5-2.15-.49-.5-.98-.66-1.64-.66-.5 0-1 .17-1.49.5-.33.5-.5.82-.5 1.32 0 .82.17 1.48.5 2.14.17 0 .33.17.5.17m1.98 2.64c-2.15 1.48-3.8 2.14-5.12 2.14-1.15 0-2.3-.5-3.3-1.32.17.33.33.66.5.83l.99.99c.66.66 1.48.99 2.3.99 1.16 0 2.48-.66 4.13-1.82l1.49-.99c.33-.33.66-.66.66-1.15 0-.17 0-.33-.17-.33-.16-.33-.99-.83-2.64-1.32a9.64 9.64 0 00-3.3-1c-.5 0-1.32.34-2.47 1-1 .66-1.65 1.32-1.65 1.98 0 0 .16.16.33.5.99.82 1.98 1.31 2.97 1.31 1.32 0 2.97-.66 5.11-2.3v.32c.17 0 .17.17.17.17m3.8 33.33a3.43 3.43 0 003.13 1.87c.33 0 .66-.05.99-.15.33-.07.66-.19.82-.32.17-.11.33-.23.5-.36.33-.12.33-.2.5-.28l2.8-2.43c.66-.52 1.32-.98 2.14-1.38.66-.4 1.32-.66 1.65-.81.5-.13.83-.33 1.16-.6.16-.24.33-.56.33-.95 0-.48-.33-.84-.66-1.1s-.66-.45-1-.57a3.84 3.84 0 01-1.15-.82 4.46 4.46 0 01-.82-1.8l-.17-.96c-.16-.45-.16-.78-.33-.96 0-.05 0-.06-.16-.06s-.5.15-.66.43c-.33.28-.66.6-1 .92-.16.33-.65.63-.98.9-.5.29-1 .44-1.32.44-1.32 0-1.98-.37-2.48-1.08a6.02 6.02 0 01-.66-1.83c-.33-.28-.5-.43-.82-.43-.83 0-1.16.86-1.16 2.6v5.13c0 .14-.16.47-.16.99-.17.5-.17 1.09-.17 1.75l-.33 1.83v.03M3.9 46.69c1.54.23 3.3.7 5.3 1.44 2 .73 3.22 1.1 3.66 1.1a3.6 3.6 0 002.91-1.5c.16-.31.16-.7.16-1.12 0-1.56-.94-3.53-2.82-5.93L12 39.18c-.23-.31-.51-.8-.87-1.43-.35-.65-.66-1.14-.91-1.49a4.44 4.44 0 00-2.48-1.9c-.69.13-1.17.37-1.4.68-.23.31-.36.66-.4 1.02-.05.35-.14.58-.3.7-.17.1-.45.18-.83.26-.09 0-.24 0-.45.02H3.9c-.87 0-1.46.1-1.78.26a2.42 2.42 0 00-.62 1.6c0 .27.06.71.2 1.34.13.6.2 1.1.2 1.45 0 .68-.2 1.35-.62 2.03-.41.7-.63 1.24-.63 1.61.17.64 1.26 1.1 3.25 1.36m5.5-15c0-1.14.3-2.4.9-3.88.6-1.49 1.2-2.48 1.77-3.14-.03-.16-.11-.16-.24-.16l-.17-.17c-.48.5-1.06 1.65-1.75 3.3a9.81 9.81 0 00-1.06 3.87c0 .74.19 1.38.52 1.94a11.7 11.7 0 002.62 2.35l1.75 1.14c1.86 1.61 2.85 2.74 2.85 3.4 0 .34-.16.69-.66 1.07-.33.4-.77.6-1.15.6-.03 0-.05.03-.05.1 0 .02.16.35.51 1 .7.94 2.18 1.4 4.16 1.4a10 10 0 008.58-4.46c0-.82 0-1.33-.16-1.55v-.6c0-1.08.16-1.89.5-2.42.32-.52.65-.77 1.15-.77.33 0 .66.11.99.36.16-1.27.16-2.37.16-3.36 0-1.5 0-2.74-.33-3.9a8.7 8.7 0 00-.82-2.47l-1-1.49c-.32-.5-.49-.99-.82-1.48-.16-.66-.33-1.16-.33-1.98-.5-.83-.82-1.65-1.32-2.48-.33-.83-.66-1.65-.99-2.31l-1.48 1.15c-1.65 1.16-2.97 1.65-4.13 1.65-.99 0-1.81-.16-2.31-.82l-.99-.83c0 .5-.16 1.16-.5 1.82l-1.03 1.98a10.07 10.07 0 00-.76 2.3c-.07.34-.12.67-.15.67L12.42 26c-1.34 2.47-2.01 4.76-2.01 6.66 0 .38.03.78.1 1.17A2.44 2.44 0 019.4 31.7m11.82 15.6c-2.15 0-3.8.3-4.95.88v-.06a3.7 3.7 0 01-3.04 1.5c-.81 0-2.08-.3-3.8-.93a44.5 44.5 0 00-4.6-1.35c-.13-.04-.43-.1-.9-.17-.47-.08-.9-.15-1.28-.23a9.67 9.67 0 01-1.17-.34 2.9 2.9 0 01-1-.5.93.93 0 01-.33-.7c0-.27.06-.55.17-.85.1-.19.22-.37.33-.53.12-.18.22-.35.28-.51.1-.15.17-.3.24-.47.06-.15.13-.3.16-.48.03-.16.07-.33.07-.5 0-.16-.07-.65-.2-1.52-.13-.86-.2-1.4-.2-1.64 0-.73.17-1.3.53-1.72.36-.4.7-.62 1.07-.62h1.9c.15 0 .38-.09.73-.28.11-.27.21-.48.28-.68.08-.2.11-.35.15-.41.03-.1.06-.2.1-.28.06-.12.14-.25.26-.38a1 1 0 01-.2-.65c0-.18 0-.34.03-.44 0-.6.28-1.44.88-2.54l.58-1.04c.47-.9.84-1.55 1.1-2.21.28-.66.58-1.65.9-2.97a8.2 8.2 0 011.89-3.47l1.24-1.49c.86-.99 1.42-1.81 1.73-2.47a5.3 5.3 0 00.48-2.15c0-.33-.08-1.32-.26-2.97-.17-1.65-.25-3.3-.25-4.78 0-1.16.1-1.98.31-2.8.22-.83.6-1.66 1.16-2.32A4.43 4.43 0 0117.75.57c1-.33 2.15-.5 3.47-.5.5 0 .99 0 1.48.17a6.84 6.84 0 013.8 1.65c.66.5 1.15 1.32 1.65 2.15.33.99.66 1.98.82 3.3.17.82.17 1.65.33 2.8 0 1 .17 1.65.17 2.15.16.5.16 1.15.33 1.98.16.66.33 1.32.66 1.81.33.66.66 1.32 1.15 1.98.5.83 1.16 1.65 1.82 2.64a16.54 16.54 0 013.3 5.28c.82 1.65 1.32 3.8 1.32 6.1 0 1.13-.17 2.24-.5 3.31.33 0 .5.13.66.37.17.23.33.72.5 1.5l.16 1.22c.17.36.33.7.83 1 .33.3.66.55 1.15.75.33.16.83.4 1.16.69.33.33.5.68.5 1.04 0 .56-.17.97-.5 1.27-.33.33-.66.56-1.16.71-.33.16-.99.5-1.98.96-.82.49-1.65 1.08-2.47 1.78l-1.65 1.4a9.08 9.08 0 01-1.82 1.4c-.5.29-1.15.44-1.81.44l-1.16-.13a3.77 3.77 0 01-2.64-2.02 56.43 56.43 0 00-6.1-.48"/>
</svg>
